<svg width="17" height="16" viewBox="0 0 17 16" fill="none" xmlns="http://www.w3.org/2000/svg">
<g id="copy_all">
<path id="Icon" d="M12.8333 1.33333H6.83331C6.09998 1.33333 5.49998 1.93333 5.49998 2.66666V10.6667C5.49998 11.4 6.09998 12 6.83331 12H12.8333C13.5666 12 14.1666 11.4 14.1666 10.6667V2.66666C14.1666 1.93333 13.5666 1.33333 12.8333 1.33333ZM12.8333 10.6667H6.83331V2.66666H12.8333V10.6667ZM2.83331 9.99999V8.66666H4.16665V9.99999H2.83331ZM2.83331 6.33333H4.16665V7.66666H2.83331V6.33333ZM7.49998 13.3333H8.83331V14.6667H7.49998V13.3333ZM2.83331 12.3333V11H4.16665V12.3333H2.83331ZM4.16665 14.6667C3.43331 14.6667 2.83331 14.0667 2.83331 13.3333H4.16665V14.6667ZM6.49998 14.6667H5.16665V13.3333H6.49998V14.6667ZM9.83331 14.6667V13.3333H11.1666C11.1666 14.0667 10.5666 14.6667 9.83331 14.6667ZM4.16665 3.99999V5.33333H2.83331C2.83331 4.59999 3.43331 3.99999 4.16665 3.99999Z" fill="#0E121B"/>
</g>
</svg>
