<svg width="20" height="20" viewBox="0 0 20 20" fill="none" xmlns="http://www.w3.org/2000/svg">
<g id="notifications_none">
<path id="Icon" d="M10 18.125C10.9167 18.125 11.6667 17.375 11.6667 16.4583H8.33337C8.33337 17.375 9.08337 18.125 10 18.125ZM15 13.125V8.95833C15 6.4 13.6417 4.25833 11.25 3.69167V3.125C11.25 2.43333 10.6917 1.875 10 1.875C9.30837 1.875 8.75004 2.43333 8.75004 3.125V3.69167C6.36671 4.25833 5.00004 6.39167 5.00004 8.95833V13.125L3.33337 14.7917V15.625H16.6667V14.7917L15 13.125ZM13.3334 13.9583H6.66671V8.95833C6.66671 6.89167 7.92504 5.20833 10 5.20833C12.075 5.20833 13.3334 6.89167 13.3334 8.95833V13.9583Z" fill="#0E121B"/>
</g>
</svg>
